<svg width="64" height="64" viewBox="0 0 64 64" fill="none" xmlns="http://www.w3.org/2000/svg">
<path d="M13.6177 6.9425C10.0292 6.9425 7.37468 10.0845 7.49318 13.492C7.60718 16.765 7.45918 21.005 6.39168 24.462C5.32168 27.93 3.51168 30.1215 0.555176 30.4035V33.597C3.51168 33.8785 5.32168 36.0705 6.39168 39.5385C7.45918 42.9955 7.60668 47.2355 7.49318 50.5085C7.37418 53.916 10.0292 57.0575 13.6177 57.0575H50.3877C53.9762 57.0575 56.6307 53.9155 56.5122 50.5085C56.3982 47.2355 56.5462 42.9955 57.6132 39.5385C58.6832 36.071 60.4887 33.879 63.4452 33.597V30.4035C60.4887 30.122 58.6837 27.93 57.6132 24.462C56.5462 21.005 56.3982 16.765 56.5122 13.492C56.6307 10.0845 53.9762 6.9425 50.3872 6.9425H13.6177ZM42.6747 37.7855C42.6747 42.4775 39.1737 45.322 33.3642 45.322H22.6532C22.5881 45.322 22.5256 45.2961 22.4796 45.2501C22.4335 45.2041 22.4077 45.1416 22.4077 45.0765V18.9135C22.4076 18.8812 22.4139 18.8492 22.4262 18.8194C22.4385 18.7896 22.4566 18.7624 22.4794 18.7396C22.5022 18.7167 22.5293 18.6986 22.5591 18.6862C22.5889 18.6739 22.6209 18.6675 22.6532 18.6675H33.3077C38.1522 18.6675 41.3312 21.2905 41.3312 25.3175C41.3312 28.144 39.1927 30.674 36.4677 31.1175V31.2655C40.1767 31.672 42.6747 34.2395 42.6747 37.7855ZM32.2857 22.048H26.6467V30.009H31.3967C35.0677 30.009 37.0922 28.5315 37.0922 25.89C37.0922 23.415 35.3517 22.048 32.2857 22.048ZM26.6467 33.168V41.942H32.4942C36.3167 41.942 38.3417 40.409 38.3417 37.527C38.3417 34.6455 36.2602 33.168 32.2482 33.168H26.6467Z" fill="#9013FE"/>
</svg>
