<svg width="30" height="30" viewBox="0 0 30 30" fill="none" xmlns="http://www.w3.org/2000/svg">
<path d="M4.40963 26.7476L2.05322 0.316875H27.947L25.5882 26.7436L14.9844 29.6834L4.40963 26.7476Z" fill="#1572B6"/>
<path d="M15 27.4364L23.5685 25.0608L25.5844 2.47781H15V27.4364Z" fill="#33A9DC"/>
<path d="M15 12.0537H19.2895L19.5858 8.73422H15V5.49258H23.1286L23.0508 6.36234L22.2539 15.2953H15V12.0537Z" fill="white"/>
<path d="M15.0195 20.4724L15.0052 20.4766L11.3951 19.5019L11.1642 16.9165H7.91064L8.36463 22.0064L15.0047 23.8493L15.0195 23.8451V20.4724Z" fill="#EBEBEB"/>
<path d="M19.0142 15.1582L18.6238 19.4993L15.0083 20.4752V23.8479L21.6538 22.0062L21.7025 21.4584L22.2664 15.1582H19.0142Z" fill="white"/>
<path d="M15.0113 5.49258V8.73422H7.18127L7.11635 8.00578L6.96869 6.36234L6.89111 5.49258H15.0113ZM15.0003 12.0541V15.2958H11.4356L11.3707 14.5673L11.2228 12.9239L11.1455 12.0541H15.0003Z" fill="#EBEBEB"/>
</svg>
