<svg width="64" height="64" viewBox="0 0 64 64" fill="none" xmlns="http://www.w3.org/2000/svg">
<path d="M4.37988 0.5L9.40738 56.9415L31.9664 63.2315L54.5884 56.9185L59.6199 0.5H4.37988ZM49.1754 13.431L47.5019 32.2335L47.5069 32.335L47.4999 32.5685V32.5665L46.3109 45.7135L46.1799 46.8815L31.9999 50.8035L31.9889 50.8135L17.8334 46.8695L16.8749 36H23.8164L24.3089 41.527L32.0019 43.612L31.9999 43.616V43.615L39.7214 41.5005L40.5374 32.5H24.3959L24.2574 30.9785L23.9419 27.414L23.7764 25.5H41.1509L41.7829 18.5H15.3199L15.1814 16.9795L14.8664 13.414L14.7004 11.5H49.3409L49.1754 13.431Z" fill="#1572B6"/>
</svg>
