<svg width="30" height="30" viewBox="0 0 30 30" fill="none" xmlns="http://www.w3.org/2000/svg">
<g clip-path="url(#clip0_37_289)">
<path d="M29.2354 13.6823L16.3175 0.764999C15.5741 0.0210928 14.3675 0.0210928 13.6229 0.764999L10.9408 3.44766L14.3434 6.85031C15.1344 6.58336 16.041 6.76242 16.6712 7.39266C17.3047 8.02687 17.4824 8.94117 17.2089 9.73477L20.4883 13.0144C21.2816 12.7409 22.1973 12.9176 22.8306 13.5523C23.7165 14.4375 23.7165 15.8726 22.8306 16.7583C22.6201 16.9689 22.3701 17.136 22.095 17.25C21.8198 17.364 21.5249 17.4227 21.2271 17.4227C20.9293 17.4227 20.6344 17.364 20.3593 17.25C20.0842 17.136 19.8342 16.9689 19.6236 16.7583C19.3073 16.4418 19.0917 16.0388 19.0039 15.6C18.9161 15.1612 18.9601 14.7063 19.1303 14.2924L16.0722 11.2343L16.0717 19.283C16.2936 19.3922 16.4961 19.5369 16.6715 19.7114C17.5569 20.5966 17.5569 22.0312 16.6715 22.9184C15.7857 23.8036 14.3502 23.8036 13.4654 22.9184C12.58 22.0315 12.58 20.5969 13.4654 19.7114C13.6776 19.4989 13.9299 19.3308 14.2077 19.2169V11.0937C13.9297 10.98 13.6773 10.8118 13.4654 10.5989C12.7947 9.92859 12.6332 8.94422 12.9772 8.12016L9.62263 4.76555L0.765125 13.6226C0.407778 13.98 0.207031 14.4648 0.207031 14.9702C0.207031 15.4757 0.407778 15.9604 0.765125 16.3179L13.6832 29.2352C14.4271 29.9791 15.6332 29.9791 16.3783 29.2352L29.2356 16.3779C29.5929 16.0203 29.7935 15.5355 29.7935 15.0301C29.7934 14.5246 29.5927 14.0398 29.2354 13.6823Z" fill="#F34F29"/>
</g>
<defs>
<clipPath id="clip0_37_289">
<rect width="30" height="30" fill="white"/>
</clipPath>
</defs>
</svg>
