<svg width="30" height="30" viewBox="0 0 30 30" fill="none" xmlns="http://www.w3.org/2000/svg">
<path fill-rule="evenodd" clip-rule="evenodd" d="M15.0001 1.19601C7.18441 1.19601 0.84668 7.53234 0.84668 15.3495C0.84668 21.603 4.90207 26.9081 10.5257 28.7798C11.2328 28.9111 11.4925 28.4728 11.4925 28.099C11.4925 27.7615 11.4793 26.6466 11.4732 25.4639C7.53574 26.3201 6.70488 23.794 6.70488 23.794C6.06105 22.158 5.1334 21.723 5.1334 21.723C3.84902 20.8446 5.2302 20.8629 5.2302 20.8629C6.65121 20.9625 7.39981 22.3214 7.39981 22.3214C8.66215 24.4847 10.7108 23.8594 11.5185 23.498C11.6455 22.5832 12.0123 21.9586 12.4171 21.6052C9.2734 21.2477 5.96848 20.0339 5.96848 14.6107C5.96848 13.0655 6.5216 11.8029 7.42699 10.8115C7.2798 10.4552 6.79535 9.0157 7.56387 7.06617C7.56387 7.06617 8.75215 6.68578 11.4568 8.51695C12.5861 8.20312 13.7971 8.04539 15.0001 8.04C16.2025 8.04539 17.4142 8.20266 18.5455 8.51648C21.2469 6.68531 22.4338 7.0657 22.4338 7.0657C23.2042 9.015 22.7197 10.4548 22.5728 10.811C23.4803 11.8024 24.0294 13.065 24.0294 14.6102C24.0294 20.0463 20.7184 21.243 17.5668 21.5937C18.0746 22.0329 18.527 22.8945 18.527 24.2147C18.527 26.1084 18.5106 27.6326 18.5106 28.0987C18.5106 28.4754 18.7656 28.9167 19.4828 28.7777C25.1031 26.9041 29.1538 21.6007 29.1538 15.3495C29.1536 7.53281 22.8165 1.19601 15.0001 1.19601Z" fill="#181616"/>
<path d="M6.20743 21.517C6.17625 21.5873 6.06563 21.6084 5.96485 21.5604C5.86172 21.5145 5.8043 21.4186 5.83758 21.348C5.86805 21.2754 5.97891 21.2555 6.08133 21.304C6.18446 21.3502 6.24305 21.447 6.20719 21.5173L6.20743 21.517ZM6.78071 22.1566C6.71344 22.2192 6.58149 22.1902 6.49196 22.091C6.39915 21.9926 6.3818 21.8606 6.45047 21.7971C6.52032 21.7348 6.64829 21.7643 6.7411 21.8627C6.83344 21.9626 6.85172 22.0934 6.78094 22.1569L6.78071 22.1566ZM7.33899 22.9716C7.25227 23.032 7.11024 22.9755 7.02258 22.8497C6.93586 22.7236 6.93586 22.5724 7.02493 22.5122C7.11235 22.4517 7.25227 22.5063 7.34133 22.631C7.42758 22.7587 7.42758 22.9102 7.33899 22.9716ZM8.10329 23.7593C8.02594 23.8448 7.86047 23.8219 7.73954 23.7054C7.61602 23.5912 7.58157 23.4288 7.65915 23.3435C7.7379 23.2577 7.90407 23.2816 8.02571 23.3974C8.14922 23.5113 8.18649 23.674 8.10375 23.7591L8.10329 23.7593ZM9.15797 24.2166C9.12352 24.3274 8.96461 24.3778 8.80407 24.3305C8.64399 24.282 8.53922 24.1523 8.57204 24.0403C8.60485 23.9285 8.76493 23.8762 8.92641 23.9266C9.08649 23.9749 9.19125 24.1038 9.15797 24.2166ZM10.3165 24.3012C10.3205 24.4179 10.1845 24.5145 10.0165 24.5168C9.84704 24.5208 9.70993 24.4261 9.70829 24.3112C9.70829 24.1934 9.84141 24.098 10.0106 24.0947C10.1787 24.0916 10.3167 24.1854 10.3167 24.3009L10.3165 24.3012ZM11.3941 24.1179C11.4143 24.2316 11.2973 24.3485 11.1302 24.3797C10.9662 24.4102 10.8138 24.3394 10.7927 24.2266C10.7726 24.1099 10.8916 23.993 11.0557 23.9627C11.2231 23.9339 11.3731 24.0023 11.3941 24.1179Z" fill="#181616"/>
</svg>
