<svg width="30" height="30" viewBox="0 0 30 30" fill="none" xmlns="http://www.w3.org/2000/svg">
<path d="M4.46162 26.6897L2.1167 0.389297H27.8829L25.5354 26.6857L14.9841 29.6107L4.46162 26.6897Z" fill="#E44D26"/>
<path d="M15 27.375L23.5261 25.0111L25.5321 2.53969H15V27.375Z" fill="#F16529"/>
<path d="M15.0001 12.2941H10.7317L10.4369 8.99086H15.0001V5.76539H6.91162L6.98896 6.6307L7.78162 15.5198H15.0001V12.2941ZM15.0001 20.6714L14.9858 20.6754L11.3936 19.7051L11.1641 17.1328H7.92576L8.37764 22.1974L14.9854 24.0316L15.0001 24.0277V20.6714Z" fill="#EBEBEB"/>
<path d="M14.9888 12.2941V15.5198H18.9607L18.5864 19.7032L14.9888 20.6742V24.0302L21.6017 22.1974L21.6502 21.6525L22.4081 13.1604L22.4867 12.2941H21.6176H14.9888ZM14.9888 5.76539V8.99086H22.7803L22.845 8.26617L22.9922 6.6307L23.0693 5.76539H14.9888Z" fill="white"/>
</svg>
