<svg width="30" height="30" viewBox="0 0 30 30" fill="none" xmlns="http://www.w3.org/2000/svg">
<g clip-path="url(#clip0_20_131)">
<path d="M0.330078 0.330002H29.6701V29.6702H0.330078V0.330002Z" fill="#F0DB4F"/>
<path d="M27.2689 22.6725C27.054 21.334 26.1812 20.2097 23.5958 19.1613C22.6977 18.7486 21.6964 18.453 21.3981 17.7724C21.2921 17.3763 21.2781 17.1532 21.3451 16.9134C21.5375 16.1353 22.4663 15.8927 23.2025 16.1159C23.6767 16.2748 24.1255 16.6402 24.3962 17.223C25.6623 16.4032 25.6597 16.4086 26.5438 15.8452C26.2201 15.3434 26.0474 15.1118 25.8355 14.8971C25.074 14.0466 24.0364 13.6085 22.3771 13.642L21.5127 13.7538C20.6844 13.9631 19.895 14.3979 19.4321 14.9808C18.0432 16.5567 18.4393 19.3148 20.1294 20.4499C21.7944 21.6996 24.2403 21.9839 24.5528 23.1525C24.8567 24.5831 23.5013 25.0463 22.1542 24.8817C21.1613 24.6752 20.6092 24.1706 20.0122 23.253C18.9135 23.8889 18.9135 23.8889 17.7838 24.5386C18.0517 25.1243 18.3331 25.3894 18.7822 25.8968C20.9075 28.0526 26.226 27.9466 27.1799 24.6837C27.2185 24.5716 27.4754 23.8245 27.2689 22.6725ZM16.2803 13.8148H13.536L13.5247 20.9098C13.5247 22.4187 13.6028 23.802 13.3574 24.2259C12.9559 25.0598 11.9155 24.9565 11.4413 24.7948C10.9588 24.5576 10.7134 24.2203 10.4291 23.7436C10.351 23.6067 10.2924 23.5008 10.2728 23.4926L8.0415 24.859C8.41252 25.6205 8.95908 26.2814 9.65916 26.7108C10.7049 27.3384 12.1105 27.5309 13.5805 27.1934C14.5372 26.9147 15.3627 26.3374 15.7949 25.4588C16.4197 24.3068 16.2856 22.9125 16.28 21.3703C16.2941 18.8543 16.2803 16.3388 16.2803 13.8148Z" fill="#323330"/>
</g>
<defs>
<clipPath id="clip0_20_131">
<rect width="30" height="30" fill="white"/>
</clipPath>
</defs>
</svg>
