<svg width="30" height="30" viewBox="0 0 30 30" fill="none" xmlns="http://www.w3.org/2000/svg">
<g clip-path="url(#clip0_37_324)">
<path d="M15 30C23.2843 30 30 23.2843 30 15C30 6.71573 23.2843 0 15 0C6.71573 0 0 6.71573 0 15C0 23.2843 6.71573 30 15 30Z" fill="black"/>
<path d="M24.918 26.2533L11.5235 9H9V20.9951H11.0189V11.5638L23.333 27.4741C23.8878 27.1028 24.4174 26.6949 24.918 26.2533Z" fill="url(#paint0_linear_37_324)"/>
<path d="M19.1665 9H21.1664V21H19.1665V9Z" fill="url(#paint1_linear_37_324)"/>
</g>
<defs>
<linearGradient id="paint0_linear_37_324" x1="18.1666" y1="19.4166" x2="24.0833" y2="26.75" gradientUnits="userSpaceOnUse">
<stop stop-color="white"/>
<stop offset="1" stop-color="white" stop-opacity="0"/>
</linearGradient>
<linearGradient id="paint1_linear_37_324" x1="20.1664" y1="8.99999" x2="20.1329" y2="17.8125" gradientUnits="userSpaceOnUse">
<stop stop-color="white"/>
<stop offset="1" stop-color="white" stop-opacity="0"/>
</linearGradient>
<clipPath id="clip0_37_324">
<rect width="30" height="30" fill="white"/>
</clipPath>
</defs>
</svg>
