<svg width="64" height="64" viewBox="0 0 64 64" fill="none" xmlns="http://www.w3.org/2000/svg">
<g clip-path="url(#clip0_37_328)">
<path d="M32 0C23.5131 0 15.3737 3.37142 9.37258 9.37258C3.37142 15.3737 0 23.5131 0 32C0 40.4869 3.37142 48.6263 9.37258 54.6274C15.3737 60.6286 23.5131 64 32 64C38.3234 63.9875 44.5014 62.1018 49.754 58.581L23.507 24.67V44.789H19.2V19.2H24.584L53.1465 55.992C56.5541 52.9917 59.2842 49.3007 61.1555 45.1641C63.0268 41.0276 63.9964 36.5402 64 32C64 23.5131 60.6286 15.3737 54.6274 9.37258C48.6263 3.37142 40.4869 0 32 0ZM40.8885 19.2H45.1555V43.588L40.8885 37.985V19.2ZM52.9785 56.16L52.923 56.208C52.9415 56.192 52.96 56.176 52.9785 56.16Z" fill="black"/>
</g>
<defs>
<clipPath id="clip0_37_328">
<rect width="64" height="64" fill="white"/>
</clipPath>
</defs>
</svg>
