<svg width="30" height="30" viewBox="0 0 30 30" fill="none" xmlns="http://www.w3.org/2000/svg">
<g clip-path="url(#clip0_37_322)">
<path d="M20.7866 20.6508C18.6772 24.9633 14.9834 27.8648 10.0967 28.8188C9.34745 29.0023 8.57828 29.0921 7.80688 29.0859C4.99438 29.0859 2.41625 27.9141 1.16469 25.9945C-0.515781 23.4375 -1.08766 18.0164 4.45297 14.0063C4.56547 14.618 4.79516 15.457 4.9475 15.9539C3.85984 16.762 2.96956 17.8061 2.34359 19.0078C1.31234 21.0328 1.42719 23.0555 2.64828 24.9258C3.49203 26.1867 4.82797 26.9531 6.54594 27.1875C8.69172 27.4591 10.8686 27.0491 12.7686 26.0156C15.7475 24.45 17.7327 22.5797 19.0311 20.0227C18.6639 19.6432 18.4466 19.1437 18.4194 18.6164C18.3997 18.0506 18.6054 17.5001 18.9912 17.0858C19.377 16.6714 19.9114 16.427 20.4772 16.4063H20.5569C21.1072 16.4035 21.6375 16.6124 22.0381 16.9897C22.4386 17.3671 22.6788 17.8839 22.7089 18.4334C22.739 18.9829 22.5568 19.5229 22.1998 19.9418C21.8429 20.3606 21.3386 20.6262 20.7913 20.6836L20.7866 20.6508ZM27.5061 15.9164C30.3678 19.1602 30.4452 22.9781 29.3389 25.193C28.3077 27.2156 25.5889 29.2406 21.9327 29.2406C20.2259 29.2058 18.5468 28.802 17.0108 28.057C17.5475 27.675 18.3092 27.0633 18.7288 26.6813C19.9133 27.1944 21.188 27.4669 22.4788 27.4828C24.8459 27.4828 26.6389 26.3766 27.7077 24.3539C28.3944 23.018 28.4342 21.4523 27.785 19.8492C26.9884 17.8322 25.5708 16.1207 23.7373 14.9625C21.3319 13.341 18.4961 12.4765 15.5952 12.4805H14.9084C14.7483 12.8504 14.4878 13.1681 14.1564 13.3975C13.825 13.627 13.436 13.7591 13.0334 13.7789H12.9608C12.4039 13.7721 11.8717 13.5484 11.4771 13.1555C11.0825 12.7625 10.8567 12.2312 10.8475 11.6744C10.8384 11.1176 11.0466 10.5792 11.4281 10.1734C11.8096 9.76773 12.3342 9.52671 12.8905 9.50156H12.9678C13.3555 9.50185 13.7356 9.60897 14.0663 9.81116C14.3971 10.0133 14.6658 10.3028 14.8428 10.6477H15.4545C20.3295 10.6477 24.6092 12.518 27.5061 15.9164ZM8.11156 21.307C8.07143 20.9178 8.16572 20.5266 8.37875 20.1984C6.24125 16.4953 5.0975 11.8008 6.85297 6.91406C8.11156 3.24141 11.2803 0.759377 14.7163 0.759377C18.3819 0.759377 22.1998 3.96797 22.6569 10.1508C22.085 9.96094 21.2506 9.68203 20.7491 9.57891C20.6248 7.55625 18.9163 2.51719 14.8686 2.59219C13.4178 2.63203 11.2803 3.31875 10.1811 4.72969C8.8214 6.41396 8.03041 8.48578 7.92172 10.6477C7.66407 13.612 8.35956 16.5811 9.90687 19.1227C9.99229 19.0914 10.0834 19.0787 10.1741 19.0852H10.2491C10.816 19.0749 11.3637 19.2903 11.7718 19.6839C12.1799 20.0775 12.415 20.6171 12.4252 21.184C12.4355 21.7509 12.2201 22.2986 11.8265 22.7068C11.4329 23.1149 10.8933 23.3499 10.3264 23.3602H10.2491C9.69601 23.3582 9.16505 23.1429 8.76684 22.7591C8.36863 22.3753 8.1339 21.8526 8.11156 21.3V21.307Z" fill="#764ABC"/>
</g>
<defs>
<clipPath id="clip0_37_322">
<rect width="30" height="30" fill="white"/>
</clipPath>
</defs>
</svg>
