<svg width="30" height="30" viewBox="0 0 30 30" fill="none" xmlns="http://www.w3.org/2000/svg">
<g clip-path="url(#clip0_52_636)">
<path d="M22.9503 2.42484C27.2279 5.06719 30.0784 9.79851 30.0784 15.1957C30.0784 23.4799 23.3626 30.1957 15.0784 30.1957C13.3245 30.1978 11.5839 29.8914 9.93619 29.2905L9.7651 29.2268L10.044 29.137L10.4026 29.0196L10.5796 28.9603L10.7549 28.9012L11.1008 28.782L11.4404 28.662L11.7735 28.5412L12.1004 28.4198L12.2617 28.3587L12.579 28.2359C12.9142 28.1046 13.2388 27.9717 13.5524 27.8377L13.7856 27.7366L14.0715 27.6098C14.1956 27.5539 14.3193 27.497 14.4425 27.4392L14.6239 27.3534L14.8909 27.2238L15.0219 27.1589L15.1513 27.0935L15.4056 26.9623C17.5398 25.8429 18.9896 24.6267 19.7596 23.2934C21.3908 20.4682 19.966 17.4492 15.8767 14.3714L15.5438 14.122L15.3418 13.9669L15.1456 13.8131L14.9551 13.6603L14.7706 13.5089L14.6806 13.4337L14.5918 13.3587L14.4188 13.2094L14.293 13.0983L14.1704 12.9877L14.012 12.8414L13.8592 12.6961L13.712 12.5522L13.6407 12.4807L13.5706 12.4092L13.4349 12.2674C11.8185 10.549 11.4575 9.07804 12.1913 7.8068C12.5649 7.15992 13.2125 6.52383 14.1329 5.90437L14.2447 5.83008L14.4207 5.71687C14.5004 5.66672 14.5817 5.61656 14.6649 5.5664L14.791 5.49141L14.9856 5.37937L15.186 5.26781L15.3404 5.18437L15.4981 5.10117L15.714 4.99055C15.8822 4.90579 16.0515 4.82337 16.2219 4.74328L16.3981 4.66125L16.6384 4.5525L16.7607 4.49812L17.0101 4.39031L17.1371 4.33641L17.3959 4.22883L17.5271 4.17539L17.795 4.06875L17.9312 4.01555L18.2082 3.90961L18.4911 3.80414L18.6348 3.75187L18.927 3.64711L19.2252 3.54305L19.5296 3.43969L19.6841 3.38812L19.9974 3.28547L20.3171 3.18328L20.6427 3.0818L20.9743 2.98078L21.3123 2.88047L21.7431 2.75578L22.1835 2.63203L22.7244 2.48484L22.9503 2.42484ZM15.0784 0.195702C16.9025 0.195702 18.6507 0.521483 20.2677 1.1175L20.4404 1.18242L20.331 1.2157L19.7966 1.38047L19.6217 1.43578L19.2765 1.54687L18.9376 1.65914L18.605 1.77211L18.2788 1.88601L17.9588 2.00086L17.8011 2.05851L17.4139 2.20383L17.0366 2.35078L16.7415 2.46914L16.5964 2.52867L16.311 2.64867C13.3937 3.8918 11.4819 5.28586 10.5678 6.8693C8.97197 9.63328 10.4195 12.6129 14.5091 15.6898L14.8419 15.9394L15.0439 16.0945L15.2401 16.2485L15.3362 16.3252L15.5235 16.4775L15.6599 16.5909L15.7935 16.7039L15.966 16.8537L16.0503 16.928L16.2142 17.0759C16.3035 17.1579 16.3902 17.2395 16.4743 17.3203L16.5985 17.4412L16.7774 17.6217L16.9473 17.8001C18.5567 19.5305 18.9008 21.0309 18.136 22.3559C17.641 23.2132 16.696 24.057 15.3034 24.8761L15.1754 24.9506L14.9682 25.068L14.7549 25.185C14.6325 25.251 14.5094 25.3158 14.3856 25.3793L14.1946 25.4759L13.9595 25.5916L13.7183 25.707L13.471 25.822L13.3452 25.8795L13.0885 25.9936L12.826 26.1077L12.5572 26.2212L12.4203 26.2779L12.1424 26.3906L12.001 26.4469L11.8581 26.5031L11.5677 26.6152L11.2712 26.7267L10.9686 26.8378L10.6597 26.9484L10.3449 27.0586L10.1851 27.1134L9.86096 27.2229L9.69643 27.2773L9.36314 27.386L9.02354 27.4941L8.59064 27.6286L8.14791 27.7624L7.78697 27.8686L7.28307 28.0137C2.96307 25.3805 0.0786133 20.625 0.0786133 15.1957C0.0786133 6.91148 6.79416 0.195702 15.0784 0.195702Z" fill="black"/>
</g>
<defs>
<clipPath id="clip0_52_636">
<rect width="30" height="30" fill="white"/>
</clipPath>
</defs>
</svg>
