<svg width="30" height="30" viewBox="0 0 30 30" fill="none" xmlns="http://www.w3.org/2000/svg">
<g clip-path="url(#clip0_37_272)">
<path d="M5.31348 11.0156H28.6736V28.282H5.31348V11.0156Z" fill="white"/>
<path d="M0.351562 14.9789V29.6273H29.6484V0.330467H0.351562V14.9789ZM23.9602 13.807C24.6618 13.9699 25.2996 14.3369 25.793 14.8617C26.0646 15.1445 26.3007 15.4593 26.4961 15.7992C26.4961 15.8367 25.2305 16.6922 24.4594 17.1703C24.4312 17.1891 24.3188 17.0672 24.1945 16.882C24.0538 16.6391 23.8538 16.4359 23.6132 16.2912C23.3726 16.1465 23.0993 16.0652 22.8188 16.0547C21.9305 15.9937 21.3586 16.4602 21.3633 17.2266C21.3559 17.4174 21.3996 17.6067 21.4898 17.775C21.6844 18.1805 22.0477 18.4219 23.1867 18.9141C25.2844 19.8164 26.182 20.4117 26.7398 21.2578C27.3633 22.1953 27.5016 23.7094 27.0797 24.8297C26.6109 26.0484 25.4625 26.8758 23.8383 27.15C23.0964 27.235 22.3469 27.2271 21.607 27.1266C20.473 26.9396 19.4285 26.3952 18.6258 25.5727C18.3563 25.275 17.8313 24.4992 17.8641 24.443C17.9496 24.3795 18.0397 24.3223 18.1336 24.2719L19.2188 23.6719L20.0602 23.1844L20.2359 23.4445C20.5326 23.8689 20.9101 24.2305 21.3469 24.5086C22.2844 25.0008 23.5641 24.9328 24.1969 24.3633C24.4093 24.1546 24.5419 23.878 24.5714 23.5816C24.601 23.2853 24.5257 22.9879 24.3586 22.7414C24.1242 22.4156 23.6555 22.1414 22.3453 21.5695C20.8336 20.918 20.182 20.5148 19.5867 19.8727C19.2151 19.4489 18.9407 18.9489 18.7828 18.4078C18.665 17.7896 18.6476 17.1565 18.7312 16.5328C19.043 15.0727 20.1375 14.0531 21.7359 13.7508C22.4762 13.6592 23.226 13.6797 23.9602 13.8117V13.807ZM17.0836 15.0352V16.2352H13.2797V27.0703H10.582V16.2328H6.76875V15.0609C6.75687 14.6568 6.76626 14.2524 6.79688 13.8492C6.81563 13.8281 9.14062 13.8281 11.9531 13.8281H17.0695L17.0836 15.0352Z" fill="#007ACC"/>
</g>
<defs>
<clipPath id="clip0_37_272">
<rect width="30" height="30" fill="white"/>
</clipPath>
</defs>
</svg>
