<svg width="64" height="64" viewBox="0 0 64 64" fill="none" xmlns="http://www.w3.org/2000/svg">
<g clip-path="url(#clip0_20_152)">
<path d="M1 32.705V64.705H65V0.705002H1V32.705ZM52.5738 30.145C54.1066 30.5007 55.4998 31.3024 56.5776 32.449C57.1709 33.0667 57.6867 33.7544 58.1136 34.497C58.1136 34.5789 55.3488 36.4477 53.6643 37.4922C53.6029 37.5332 53.3571 37.2669 53.0858 36.8624C52.7783 36.3318 52.3413 35.8878 51.8158 35.5717C51.2902 35.2557 50.6932 35.0779 50.0803 35.0551C48.1398 34.922 46.8906 35.9408 46.9008 37.6151C46.8848 38.0319 46.9802 38.4455 47.1773 38.8132C47.6022 39.6989 48.3958 40.2263 50.8842 41.3015C55.4666 43.2727 57.4275 44.5732 58.6461 46.4215C60.008 48.4695 60.3101 51.777 59.3885 54.2244C58.3645 56.8868 55.8557 58.6941 52.3075 59.2932C50.687 59.4788 49.0496 59.4616 47.4333 59.242C44.9666 58.8418 42.6911 57.6673 40.936 55.8884C40.3472 55.2381 39.2003 53.5434 39.272 53.4205C39.4589 53.2818 39.6557 53.1569 39.8608 53.0468L42.216 51.6951L44.0541 50.6301L44.4381 51.1984C45.0861 52.1255 45.9109 52.9154 46.865 53.5229C48.913 54.5981 51.7085 54.4496 53.0909 53.2055C53.555 52.7496 53.8446 52.1453 53.9091 51.4979C53.9737 50.8505 53.8091 50.201 53.4442 49.6624C52.9322 48.9508 51.9082 48.3517 49.0461 47.1024C45.7437 45.6791 44.3203 44.7984 43.0198 43.3956C42.208 42.4698 41.6086 41.3776 41.2637 40.1956C41.0064 38.8451 40.9684 37.4621 41.151 36.0996C41.832 32.9098 44.223 30.6826 47.7149 30.0221C49.332 29.822 50.97 29.8669 52.5738 30.1552V30.145ZM37.5517 32.8279V35.4493H29.2419V59.1191H23.3488V35.4442H15.0186V32.8842C14.9962 32.0029 15.0201 31.1211 15.0902 30.2423C15.121 30.2013 20.2102 30.1808 26.3542 30.1911H37.521L37.5517 32.8279Z" fill="#007ACC"/>
</g>
<defs>
<clipPath id="clip0_20_152">
<rect width="64" height="64" fill="white"/>
</clipPath>
</defs>
</svg>
