<svg width="25" height="25" viewBox="0 0 25 25" fill="none" xmlns="http://www.w3.org/2000/svg">
<g clip-path="url(#clip0_20_122)">
<path fill-rule="evenodd" clip-rule="evenodd" d="M12.5 0.295311C7.91152 0.295311 4.19043 4.01543 4.19043 8.60488C4.19043 12.2762 6.57129 15.391 9.87305 16.4896C10.2883 16.5666 10.4408 16.3094 10.4408 16.0898C10.4408 15.8918 10.433 15.2371 10.4295 14.543C8.11758 15.0455 7.62988 13.5625 7.62988 13.5625C7.25195 12.602 6.70723 12.3465 6.70723 12.3465C5.95332 11.8309 6.76387 11.8414 6.76387 11.8414C7.59844 11.9 8.03789 12.6979 8.03789 12.6979C8.77891 13.9682 9.98184 13.6008 10.4559 13.3885C10.5307 12.8514 10.7459 12.4846 10.9836 12.2771C9.13789 12.0672 7.19766 11.3545 7.19766 8.17051C7.19766 7.26328 7.52227 6.52207 8.05391 5.94004C7.96758 5.73066 7.6832 4.88535 8.13438 3.74082C8.13438 3.74082 8.83203 3.51777 10.4195 4.59297C11.0826 4.40879 11.7936 4.31641 12.4996 4.31328C13.2059 4.3166 13.9172 4.40898 14.5813 4.59297C16.1672 3.51797 16.8641 3.74101 16.8641 3.74101C17.3164 4.88555 17.032 5.73066 16.9457 5.94023C17.4785 6.52187 17.8008 7.26328 17.8008 8.1707C17.8008 11.3621 15.8568 12.0648 14.0064 12.2703C14.3045 12.5281 14.5701 13.034 14.5701 13.8094C14.5701 14.9211 14.5607 15.8158 14.5607 16.0895C14.5607 16.3102 14.7104 16.5695 15.1314 16.4879C18.4314 15.3879 20.8092 12.2742 20.8092 8.6041C20.8096 4.01562 17.0893 0.295311 12.5 0.295311Z" fill="#1A7EFF"/>
<path d="M7.33798 12.2258C7.31943 12.2672 7.25439 12.2795 7.1954 12.2512C7.13486 12.2238 7.10126 12.1678 7.12079 12.1262C7.13837 12.084 7.20361 12.0721 7.26396 12.1004C7.32451 12.1277 7.35869 12.1844 7.33798 12.2258ZM7.67451 12.6016C7.63486 12.6381 7.55732 12.6211 7.50458 12.5629C7.45029 12.5049 7.44013 12.4273 7.48036 12.3902C7.52099 12.3535 7.59618 12.3707 7.65029 12.4287C7.70497 12.4873 7.71572 12.5641 7.67431 12.6014L7.67451 12.6016ZM8.00204 13.0797C7.95126 13.1152 7.86786 13.082 7.8165 13.008C7.76533 12.9344 7.76533 12.8459 7.81747 12.8102C7.86904 12.7746 7.95107 12.8066 8.00302 12.8799C8.05419 12.9551 8.05419 13.0438 8.00204 13.0797ZM8.45087 13.5422C8.40537 13.5924 8.30829 13.5789 8.2374 13.5104C8.16474 13.4434 8.14462 13.3482 8.19013 13.298C8.23642 13.2479 8.33388 13.2619 8.40536 13.3299C8.47763 13.3967 8.49951 13.4922 8.45087 13.5422ZM9.0704 13.8105C9.05009 13.8758 8.95673 13.9053 8.86259 13.8777C8.76845 13.8492 8.70712 13.773 8.72587 13.7074C8.7454 13.6418 8.83954 13.6111 8.93427 13.6406C9.02802 13.6688 9.08974 13.7441 9.0704 13.8105ZM9.75009 13.8604C9.75263 13.9287 9.67275 13.9857 9.57392 13.9869C9.4747 13.9893 9.39423 13.9338 9.39306 13.8662C9.39306 13.7971 9.47119 13.7408 9.5704 13.7393C9.66923 13.7373 9.75009 13.7924 9.75009 13.8604ZM10.3829 13.7527C10.3946 13.8195 10.3263 13.8883 10.228 13.9064C10.1315 13.9244 10.0425 13.883 10.03 13.8166C10.0183 13.7482 10.088 13.6799 10.1843 13.6619C10.2825 13.6447 10.3704 13.6848 10.3829 13.7527Z" fill="#1A7EFF"/>
<path d="M4.85439 21.1527H2.76455C2.73865 21.1527 2.71381 21.163 2.6955 21.1813C2.67718 21.1997 2.66689 21.2245 2.66689 21.2504V22.2723C2.66689 22.2982 2.67718 22.323 2.6955 22.3413C2.71381 22.3596 2.73865 22.3699 2.76455 22.3699H3.57959V23.6395C3.57959 23.6395 3.39658 23.702 2.89014 23.702C2.29326 23.702 1.45908 23.484 1.45908 21.6496C1.45908 19.815 2.32783 19.5734 3.14346 19.5734C3.84932 19.5734 4.15322 19.6977 4.34697 19.7576C4.40752 19.776 4.46416 19.7154 4.46416 19.6615L4.69717 18.6742C4.69754 18.6594 4.69433 18.6448 4.6878 18.6315C4.68127 18.6182 4.67161 18.6068 4.65967 18.598C4.58096 18.5418 4.10166 18.2738 2.89053 18.2738C1.49521 18.2738 0.0639648 18.8672 0.0639648 21.7211C0.0639648 24.5746 1.70264 24.9998 3.0835 24.9998C4.22686 24.9998 4.92041 24.5111 4.92041 24.5111C4.94893 24.4955 4.95205 24.4555 4.95205 24.4369V21.2502C4.95205 21.2243 4.94176 21.1995 4.92345 21.1811C4.90513 21.1628 4.88029 21.1527 4.85439 21.1527ZM15.5284 18.5176H14.3515C14.3386 18.5176 14.3259 18.5202 14.3141 18.5252C14.3022 18.5301 14.2915 18.5374 14.2825 18.5465C14.2734 18.5557 14.2663 18.5665 14.2614 18.5784C14.2566 18.5902 14.2541 18.603 14.2542 18.6158L14.2546 20.89H12.4202V18.6158C12.4203 18.603 12.4178 18.5903 12.413 18.5784C12.4082 18.5665 12.401 18.5557 12.392 18.5466C12.383 18.5375 12.3723 18.5302 12.3605 18.5252C12.3487 18.5203 12.336 18.5177 12.3231 18.5176H11.1464C11.1335 18.5176 11.1208 18.5202 11.109 18.5252C11.0972 18.5301 11.0864 18.5374 11.0774 18.5465C11.0683 18.5557 11.0612 18.5665 11.0563 18.5784C11.0515 18.5902 11.049 18.603 11.0491 18.6158V24.774C11.0491 24.8281 11.0929 24.8723 11.1464 24.8723H12.3231C12.336 24.8722 12.3487 24.8696 12.3605 24.8646C12.3723 24.8596 12.3831 24.8523 12.3921 24.8432C12.4011 24.834 12.4082 24.8232 12.4131 24.8113C12.4179 24.7994 12.4203 24.7867 12.4202 24.7738V22.1398H14.2546L14.2515 24.7738C14.2515 24.8281 14.2952 24.8723 14.3491 24.8723H15.5284C15.5413 24.8722 15.554 24.8696 15.5658 24.8646C15.5776 24.8596 15.5884 24.8523 15.5974 24.8432C15.6064 24.834 15.6135 24.8232 15.6183 24.8113C15.6232 24.7994 15.6256 24.7867 15.6255 24.7738V18.6156C15.6256 18.6028 15.6232 18.5901 15.6184 18.5782C15.6136 18.5663 15.6064 18.5555 15.5974 18.5464C15.5884 18.5372 15.5776 18.53 15.5658 18.5251C15.5539 18.5201 15.5412 18.5176 15.5284 18.5176ZM6.31631 18.6576C5.89756 18.6576 5.55771 19 5.55771 19.4238C5.55771 19.8471 5.89756 20.1904 6.31631 20.1904C6.73545 20.1904 7.0751 19.8471 7.0751 19.4238C7.0751 19 6.73525 18.6576 6.31631 18.6576ZM6.89365 20.5342H5.72061C5.6667 20.5342 5.61865 20.5896 5.61865 20.6436V24.7162C5.61865 24.8359 5.69326 24.8715 5.78975 24.8715H6.84639C6.9626 24.8715 6.99092 24.8145 6.99092 24.7143V20.6324C6.99097 20.6196 6.98849 20.6069 6.98363 20.595C6.97877 20.5832 6.97162 20.5724 6.96259 20.5633C6.95356 20.5541 6.94282 20.5469 6.93099 20.542C6.91917 20.537 6.90648 20.5342 6.89365 20.5342ZM20.0979 20.5434H18.93C18.9172 20.5435 18.9045 20.5461 18.8927 20.5511C18.8809 20.5561 18.8701 20.5634 18.8612 20.5725C18.8522 20.5817 18.8451 20.5925 18.8402 20.6044C18.8354 20.6163 18.833 20.629 18.8331 20.6418V23.6613C18.8331 23.6613 18.5362 23.8781 18.1153 23.8781C17.6944 23.8781 17.5827 23.6873 17.5827 23.275V20.6418C17.5828 20.629 17.5804 20.6162 17.5756 20.6043C17.5707 20.5924 17.5636 20.5816 17.5546 20.5724C17.5456 20.5633 17.5348 20.556 17.523 20.551C17.5112 20.546 17.4985 20.5434 17.4856 20.5434H16.3005C16.2746 20.5436 16.2498 20.554 16.2315 20.5725C16.2133 20.5909 16.2031 20.6159 16.2032 20.6418V23.4742C16.2032 24.6988 16.8858 24.9984 17.8247 24.9984C18.595 24.9984 19.2161 24.5727 19.2161 24.5727C19.2161 24.5727 19.2454 24.7973 19.2591 24.8236C19.2728 24.8502 19.3073 24.877 19.345 24.877L20.0989 24.8736C20.1118 24.8736 20.1245 24.871 20.1364 24.866C20.1483 24.861 20.1591 24.8538 20.1681 24.8446C20.1772 24.8355 20.1844 24.8247 20.1893 24.8127C20.1941 24.8008 20.1966 24.7881 20.1966 24.7752L20.196 20.6412C20.1959 20.6153 20.1856 20.5905 20.1673 20.5721C20.149 20.5538 20.1242 20.5434 20.0983 20.5432L20.0979 20.5434ZM23.2897 20.4051C22.6265 20.4051 22.1753 20.701 22.1753 20.701V18.6156C22.1754 18.6028 22.1729 18.5901 22.1681 18.5782C22.1632 18.5663 22.1561 18.5555 22.1471 18.5464C22.1381 18.5373 22.1274 18.53 22.1155 18.525C22.1037 18.5201 22.091 18.5175 22.0782 18.5174H20.8983C20.8855 18.5174 20.8727 18.5199 20.8608 18.5249C20.8489 18.5298 20.8382 18.5371 20.8291 18.5462C20.82 18.5553 20.8128 18.5662 20.8079 18.5781C20.8031 18.59 20.8006 18.6027 20.8007 18.6156V24.7738C20.8006 24.7867 20.8031 24.7995 20.8079 24.8114C20.8128 24.8233 20.82 24.8341 20.8291 24.8433C20.8382 24.8524 20.8489 24.8596 20.8608 24.8646C20.8727 24.8695 20.8855 24.8721 20.8983 24.8721H21.7171C21.7542 24.8721 21.7819 24.8531 21.8024 24.8197C21.8226 24.7865 21.852 24.5357 21.852 24.5357C21.852 24.5357 22.3345 24.9928 23.2481 24.9928C24.3204 24.9928 24.9356 24.449 24.9356 22.551C24.9356 20.6529 23.9532 20.4049 23.2895 20.4049L23.2897 20.4051ZM22.8288 23.8746C22.4239 23.8623 22.1491 23.6785 22.1491 23.6785V21.7283C22.1491 21.7283 22.4202 21.5623 22.7526 21.5322C23.1731 21.4945 23.5784 21.6217 23.5784 22.6248C23.5784 23.6828 23.3958 23.8916 22.829 23.8744L22.8288 23.8746ZM10.3896 23.8516C10.3382 23.8516 10.2065 23.8725 10.0712 23.8725C9.6376 23.8725 9.49053 23.6709 9.49053 23.41V21.6783H10.3733C10.3862 21.6783 10.399 21.6758 10.4109 21.6708C10.4228 21.6659 10.4336 21.6586 10.4427 21.6494C10.4517 21.6403 10.4589 21.6294 10.4638 21.6175C10.4686 21.6056 10.4711 21.5928 10.471 21.5799V20.6314C10.471 20.6186 10.4686 20.6058 10.4637 20.594C10.4588 20.5821 10.4516 20.5712 10.4425 20.5621C10.4335 20.553 10.4227 20.5458 10.4108 20.5409C10.3989 20.5359 10.3862 20.5334 10.3733 20.5334H9.49053L9.48916 19.3674C9.48916 19.323 9.4665 19.301 9.41533 19.301H8.21221C8.16572 19.301 8.14053 19.3217 8.14053 19.3664V20.5715C8.14053 20.5715 7.5376 20.717 7.49697 20.7287C7.47669 20.7346 7.45887 20.747 7.44619 20.7639C7.43351 20.7808 7.42666 20.8013 7.42666 20.8225V21.5797C7.42658 21.5925 7.42903 21.6052 7.43387 21.6171C7.4387 21.629 7.44583 21.6398 7.45485 21.6489C7.46386 21.658 7.47458 21.6653 7.4864 21.6703C7.49822 21.6753 7.51091 21.6779 7.52373 21.6779H8.14053V23.4998C8.14053 24.8533 9.08975 24.9861 9.73037 24.9861C10.0228 24.9861 10.3729 24.8924 10.4308 24.8709C10.4659 24.8578 10.486 24.8217 10.486 24.7824L10.4868 23.9494C10.4864 23.9236 10.476 23.899 10.4578 23.8807C10.4396 23.8624 10.415 23.8519 10.3892 23.8514L10.3896 23.8516Z" fill="#1A7EFF"/>
</g>
<defs>
<clipPath id="clip0_20_122">
<rect width="25" height="25" fill="white"/>
</clipPath>
</defs>
</svg>
