<svg width="25" height="25" viewBox="0 0 25 25" fill="none" xmlns="http://www.w3.org/2000/svg">
<g clip-path="url(#clip0_20_129)">
<path d="M22.6562 0.585936H2.34375C1.88287 0.581246 1.43896 0.759578 1.10941 1.0818C0.779865 1.40402 0.591604 1.84382 0.585938 2.30469V22.6992C0.592628 23.1594 0.78134 23.5982 1.11078 23.9196C1.44021 24.241 1.88354 24.4188 2.34375 24.4141H22.6562C23.1172 24.4177 23.5608 24.2388 23.8901 23.9164C24.2195 23.5939 24.4079 23.1542 24.4141 22.6934V2.29883C24.4058 1.83931 24.2166 1.40161 23.8874 1.08087C23.5583 0.760125 23.1158 0.58226 22.6562 0.585936ZM7.65039 20.8984H4.11328V9.51758H7.65039V20.8984ZM5.89258 7.9668C5.48689 7.96718 5.0902 7.84723 4.75269 7.62213C4.41519 7.39702 4.15203 7.07687 3.99651 6.70217C3.84099 6.32747 3.8001 5.91507 3.87901 5.51713C3.95792 5.11918 4.15308 4.75359 4.43981 4.46658C4.72654 4.17958 5.09195 3.98407 5.48982 3.90478C5.88768 3.82549 6.30013 3.86599 6.67497 4.02115C7.04982 4.17631 7.37022 4.43917 7.59565 4.77646C7.82108 5.11375 7.94141 5.51032 7.94141 5.91601C7.94089 6.18566 7.88721 6.45255 7.78343 6.70142C7.67965 6.95029 7.52781 7.17626 7.3366 7.36638C7.14539 7.5565 6.91857 7.70705 6.66911 7.8094C6.41965 7.91176 6.15245 7.96392 5.88281 7.96289L5.89258 7.9668ZM20.8984 20.8984H17.3613V15.3613C17.3613 14.043 17.3379 12.3457 15.5234 12.3457C13.709 12.3457 13.4004 13.7832 13.4004 15.2754V20.8984H9.86914V9.51758H13.2598V11.0801H13.3066C13.7793 10.1855 14.9316 9.24219 16.6523 9.24219C20.2344 9.23437 20.8984 11.5918 20.8984 14.6484V20.8984Z" fill="#1A7EFF"/>
</g>
<defs>
<clipPath id="clip0_20_129">
<rect width="25" height="25" fill="white"/>
</clipPath>
</defs>
</svg>
